<?xml version="1.0" standalone="no"?>
<!DOCTYPE svg PUBLIC "-//W3C//DTD SVG 20010904//EN"
 "http://www.w3.org/TR/2001/REC-SVG-20010904/DTD/svg10.dtd">
<svg version="1.0" xmlns="http://www.w3.org/2000/svg"
 width="700.000000pt" height="700.000000pt" viewBox="0 0 700.000000 700.000000"
 preserveAspectRatio="xMidYMid meet">
<metadata>
Created by potrace 1.14, written by Peter Selinger 2001-2017
</metadata>
<g transform="translate(0.000000,700.000000) scale(0.100000,-0.100000)"
fill="#000000" stroke="none">
<path d="M1396 6098 c-112 -16 -243 -116 -291 -221 -14 -29 -36 -104 -50 -167
-15 -63 -28 -116 -30 -120 -2 -3 -6 -25 -10 -50 -4 -25 -8 -47 -10 -51 -4 -5
-68 -281 -81 -347 -2 -12 -14 -62 -25 -110 -12 -48 -23 -96 -25 -108 -2 -11
-38 -169 -80 -350 -41 -181 -77 -338 -80 -349 -3 -20 -30 -139 -41 -185 -3
-14 -7 -29 -9 -35 -4 -20 -156 -680 -159 -695 -2 -8 -10 -44 -19 -80 -8 -36
-17 -76 -20 -90 -2 -14 -14 -65 -26 -115 -12 -49 -23 -97 -25 -105 -5 -24 -61
-270 -110 -485 -25 -110 -62 -270 -82 -355 -19 -85 -41 -180 -48 -210 -61
-267 -88 -387 -105 -455 -10 -44 -21 -93 -24 -110 -3 -16 -15 -66 -25 -110
-44 -181 1 -297 134 -342 46 -15 255 -16 2745 -16 2114 0 2705 3 2740 13 138
38 249 152 283 290 15 58 53 222 62 260 32 145 150 659 160 700 8 30 16 66 19
80 7 33 28 126 65 290 17 74 42 185 56 245 13 61 33 146 44 190 11 44 22 91
25 105 2 14 16 77 31 140 15 63 28 123 30 133 3 10 6 26 9 35 3 9 7 28 10 42
6 31 45 202 86 380 18 74 33 142 35 150 2 8 15 67 30 130 14 63 29 126 31 140
3 14 27 122 55 240 27 118 54 235 59 260 15 65 17 72 49 210 31 134 100 432
107 465 2 11 29 130 60 264 59 256 62 298 32 371 -20 48 -88 107 -140 121 -32
9 -702 12 -2719 13 -1472 0 -2697 -2 -2723 -6z m1119 -542 c61 -11 113 -47
190 -128 39 -41 133 -141 210 -223 77 -82 172 -183 210 -223 120 -127 128
-136 200 -213 39 -41 131 -140 205 -218 74 -79 151 -161 170 -181 19 -21 90
-95 156 -166 67 -71 136 -145 154 -164 18 -19 86 -91 150 -160 148 -156 159
-169 177 -204 39 -75 37 -180 -5 -269 -46 -97 -63 -111 -453 -390 -86 -62
-241 -173 -344 -247 -217 -156 -271 -195 -305 -218 -14 -9 -27 -19 -30 -22 -5
-5 -605 -437 -653 -470 -37 -25 -231 -164 -242 -173 -69 -57 -554 -396 -594
-414 -46 -22 -63 -25 -125 -21 -78 5 -132 28 -191 79 -69 61 -116 174 -108
262 4 45 38 135 61 161 20 22 156 124 427 320 105 75 197 142 205 149 8 7 94
68 190 137 96 68 177 127 180 130 3 3 40 30 83 60 43 30 106 76 140 101 34 25
130 95 213 155 83 60 229 166 325 235 96 69 235 170 309 223 74 54 139 106
144 117 8 16 -4 33 -70 102 -89 93 -187 197 -384 407 -74 79 -169 180 -211
225 -42 44 -94 99 -115 122 -165 176 -263 281 -289 308 -16 17 -91 95 -165
174 -74 78 -148 166 -165 194 -27 46 -30 61 -29 132 0 68 4 88 28 135 32 61
87 119 138 146 35 19 133 43 158 39 8 -1 33 -6 55 -9z m2398 -3490 c161 -79
202 -267 91 -413 -26 -34 -95 -80 -136 -90 -12 -3 -329 -6 -703 -7 -729 -2
-741 -1 -816 49 -97 64 -143 202 -103 310 14 38 64 104 96 126 76 54 71 54
820 53 l693 0 58 -28z"/>
</g>
</svg>
