<?xml version="1.0" encoding="utf-8"?>
<!-- Generator: Adobe Illustrator 26.0.2, SVG Export Plug-In . SVG Version: 6.00 Build 0)  -->
<svg version="1.1" id="Laag_1" xmlns="http://www.w3.org/2000/svg" xmlns:xlink="http://www.w3.org/1999/xlink" x="0px" y="0px"
	 viewBox="0 0 425.2 425.2" style="enable-background:new 0 0 425.2 425.2;" xml:space="preserve">
<style type="text/css">
	.st0{fill:#D2003A;}
	.st1{fill:#005FAA;}
</style>
<path class="st0" d="M154.95,234.38h-0.74c-9.32,0-18.64-0.01-27.96-0.02h-1.27c0.07-0.38,0.15-0.76,0.23-1.14
	c6.8-34.95,17.75-76.32,30.38-111.22c0.08-0.22,0.16-0.44,0.24-0.66h0.74c24.67-0.01,49.35-0.02,74.03-0.01h1.25
	c-0.1,0.37-0.2,0.74-0.3,1.12c-1.77,6.64-3.61,13.54-5.5,20.61c-0.06,0.24-0.12,0.47-0.19,0.71h-0.76c-15.59,0-31.2,0-46.76,0.02
	c-2.28,7.6-4.53,15.39-6.71,23.22C185.85,167,200.12,167,214.4,167h1.3c-0.11,0.42-0.22,0.82-0.34,1.24
	c-1.96,7.33-3.92,14.69-5.87,22c-0.06,0.25-0.12,0.49-0.19,0.73h-0.78c-14.44,0-28.88-0.01-43.25-0.03
	c-3.82,14.77-7.27,29.28-10.2,42.78C155.04,233.94,155,234.15,154.95,234.38"/>
<path class="st1" d="M119.87,234.35h-1.03c-9.44-0.01-18.87-0.02-28.3-0.03h-0.91c-0.05-0.29-0.09-0.59-0.13-0.88
	c-0.98-6.82-1.83-13.8-2.55-20.89c-11.09-0.06-22.09-0.12-32.99-0.19c-3.74,7.21-7.41,14.34-11.11,21.43
	c-0.08,0.16-0.16,0.31-0.25,0.47h-0.55c-9.23-0.01-18.45-0.03-27.66-0.04H12.7c0.29-0.48,0.57-0.96,0.86-1.44
	c21.33-36.2,40.42-74.75,66.69-110.94c0.11-0.15,0.21-0.29,0.32-0.44h0.54c10.06-0.01,20.12-0.02,30.19-0.03h0.9
	c-0.01,0.28-0.02,0.57-0.03,0.85c-1.02,35.19,1.58,75.96,7.53,111.17C119.76,233.71,119.81,234.03,119.87,234.35 M65.8,189.58
	c6.52,0.02,13.08,0.03,19.69,0.05c-0.63-11.04-0.96-22.15-0.99-33.12C77.92,167.51,71.71,178.61,65.8,189.58"/>
<path class="st1" d="M301.37,234.36h-1.04c-9.44,0-18.88,0.01-28.33,0.02h-0.92c0.01-0.29,0.02-0.57,0.03-0.85
	c0.18-6.68,0.26-13.62,0.25-20.7c-11.35,0.03-22.73,0.04-34.14,0.05c-4.38,7.23-8.74,14.29-13.02,21.07
	c-0.09,0.15-0.19,0.29-0.28,0.44h-0.55c-9.29,0-18.58,0-27.86,0h-1.7c0.28-0.45,0.57-0.9,0.85-1.34
	c21.72-34.72,47-76.69,67.14-111.28c0.08-0.14,0.16-0.29,0.25-0.44h0.55c10.07,0.01,20.14,0.01,30.21,0.02h0.89
	c0.04,0.28,0.09,0.56,0.13,0.84c5.64,35.02,8.33,76.18,7.58,111.21C301.38,233.72,301.37,234.04,301.37,234.36 M250.82,189.78
	c6.86,0,13.71-0.01,20.54-0.02c-0.27-11.15-0.75-22.42-1.43-33.48C263.8,167.33,257.37,178.61,250.82,189.78"/>
<path class="st1" d="M414.1,127.57c-2.16,8.33-4.2,16.64-6.23,24.98c-0.75,0-1.51-0.01-2.26-0.01c-3.21-3.35-7.28-6.33-12.44-8.61
	c-11.6-5.12-22.4-5.23-30.24-1.35c-5.84,2.89-10.49,9.49-6.31,15.35c3.59,5.04,25.43,6.79,35.85,13.85
	c11.06,7.5,9.67,19.11,7.79,27.15c-3.3,10.91-9.97,19.94-20.69,26.55c-10.7,7.04-23.92,10.2-38.67,10.2
	c-19.22,0-32.22-5.83-36.82-8.11c3.11-8.52,6.06-17.35,8.81-26.29c0.82,0,1.62,0,2.43-0.01c4.09,4.76,8.91,8.63,14.69,10.86
	c9.79,3.79,34.88,8.22,40.82-8.29c1.84-5.12-1.55-8.87-6.95-10.69c-11.48-3.88-31.64-5.43-37.15-18.95
	c-2.21-5.42-2.51-11.65-0.93-19.77c2.45-10.5,7.82-18.13,18.4-24.86c22.09-14.05,47.61-9.12,53.83-7.71
	C404.23,123.28,409.92,125.19,414.1,127.57"/>
<g>
	<path class="st1" d="M50.19,286.3l-0.47,1.75c-2.54,9.48-0.2,15.73,14.27,15.73c10.83,0,20.06-5.15,22.85-15.55
		c2-7.45,0.1-11.5-7.31-14.17l-7.06-2.58c-3.93-1.38-4.69-3.4-4.05-5.79c0.94-3.5,4.23-5.34,7.5-5.34c4.2,0,5.03,2.48,3.7,7.45
		h11.58l0.54-2.03c2.39-8.92-1.74-14.07-13.41-14.07c-13.26,0-20.29,6.71-22.48,14.9c-1.88,6.99,0.6,11.31,7.04,13.8l8.2,3.22
		c2.27,0.92,4.03,2.39,3.16,5.61c-1.06,3.96-4.2,5.89-8.12,5.89c-4.39,0-5.96-2.85-4.8-7.18l0.44-1.66H50.19z M94.41,277.75
		c-4.61,17.21-2.76,26.31,12.82,26.04c14.75,0,22.24-9.11,26.78-26.04c4.62-17.2,2.76-26.31-12.82-26.03
		C106.44,251.71,98.95,260.82,94.41,277.75 M107.3,277.75c2.71-10.12,5.22-17.38,11.57-17.38c5.23,0,5.55,5.06,2.25,17.38
		c-3.31,12.33-6.34,17.39-11.57,17.39C103.2,295.14,104.59,287.87,107.3,277.75 M135.29,302.49h12.89l10.96-40.85h7.47l2.32-8.65
		h-7.47l0.72-2.34c0.76-2.85,2.37-3.96,6.01-3.96c0.84,0,1.68,0,2.5,0.09l2.42-9.02c-2.29-0.18-4.5-0.28-6.84-0.28
		c-8.31,0-14.24,2.94-16.63,11.87l-1.07,3.63h-6.54l-2.32,8.65h6.54L135.29,302.49z M178,253h-6.54l-2.32,8.65h6.54l-7.6,28.34
		c-2.69,10.03-1.63,13.06,8.45,13.06c2.99,0,5.67-0.28,8.55-0.55l2.37-8.83c-0.87,0.09-1.92,0.19-2.94,0.19
		c-3.74,0-4.16-1.57-3.12-5.43l7.18-26.77h7.47l2.32-8.65h-7.47l2.93-10.5h-12.89L178,253z M196.85,302.49h14.94l15.68-35.14h0.19
		l-2.79,35.14h14.66l24.1-49.49h-12.33l-15.5,35.14h-0.19l2.8-35.14h-14.01l-15.68,35.14h-0.19l3.54-35.14H199.2L196.85,302.49z
		 M276,268.18l0.37-1.38c1.04-3.87,3.78-6.44,7.71-6.44c4.29,0,5.36,2.3,4.35,6.07c-0.89,3.31-2.59,4.78-6.69,5.79l-7.8,1.93
		c-9.51,2.39-14.35,6.16-16.85,15.46c-1.78,6.62-0.62,14.17,8.34,14.17c6.16,0,10.15-1.29,14.52-6.44h0.19
		c-0.07,1.65-0.21,3.59,0.21,5.15h12.33c-0.54-2.85-0.25-4.96,0.98-9.57l6.98-26.03c2.39-8.93,1.18-15.18-14.14-15.18
		c-9.71,0-18.69,3.86-21.75,15.27l-0.32,1.2H276z M282.77,287.5c-1.46,5.43-6.53,7.64-9.99,7.64c-3.46,0-4.02-3.13-3-6.9
		c1.18-4.42,3.9-6.9,9.43-8c1.68-0.37,4.05-1.2,6.17-2.49L282.77,287.5z M300.23,302.49h12.89l7.97-29.71
		c1.78-6.62,7.44-8.93,11.92-8.93c1.31,0,2.68,0.09,3.97,0.18l3.26-12.14c-0.72-0.09-1.54-0.18-2.28-0.18
		c-5.32,0-9.8,3.13-13.7,7.91h-0.19l1.78-6.62H313.5L300.23,302.49z M373.96,279.68l0.77-2.86c4.07-15.18,3.37-25.11-11.66-25.11
		c-17.37,0-23.29,12.32-26.85,25.57c-3.31,12.33-6.36,26.5,12.32,26.5c12.14,0,19.47-6.44,23.02-17.94h-11.58
		c-2.38,6.07-5.01,9.29-9.31,9.29c-4.76,0-4.82-5.71-3.27-11.5l1.06-3.96H373.96z M350.49,272.14l0.52-1.93
		c1.23-4.6,4.13-9.84,9.27-9.84c5.32,0,5.12,4.23,3.38,11.78H350.49z"/>
</g>
</svg>
